<svg width="960" height="640" viewBox="0 0 960 640" fill="none" xmlns="http://www.w3.org/2000/svg">
<path d="M558.255 278.276L538.707 330.96L526.864 302.732C526.864 302.732 531.447 306.382 533.434 309.83C533.434 309.83 547.873 292.512 547.873 274.586C547.873 254.713 533.394 246.561 523.255 244.33C518.509 239.423 507.235 231.879 482.657 231.879C458.08 231.879 443.642 240.315 439.099 258.444L423.201 321.794L407.06 278.236C375.871 194.324 208.899 192.377 181.97 60C145.225 124.039 175.927 179.318 175.927 179.318C156.176 249.359 202.654 304.03 202.654 304.03C191.744 392.89 304.329 448.899 335.031 473.517C368.896 500.69 406.573 567 406.573 567C406.573 567 408.56 542.95 423.161 535.974C423.161 535.974 430.501 477.613 471.991 466.784C471.991 466.784 471.788 458.592 479.251 454.82L482.576 399.014L485.902 454.82C493.364 458.592 493.162 466.784 493.162 466.784C534.651 477.613 541.992 535.974 541.992 535.974C556.592 542.95 558.58 567 558.58 567C558.58 567 596.257 500.69 630.122 473.517C660.823 448.899 773.409 392.89 762.499 304.03C762.499 304.03 808.977 249.359 789.226 179.318C789.226 179.318 819.968 124.039 783.183 60C756.253 192.377 589.322 194.324 558.174 278.276H558.255ZM720.725 253.537C776.531 216.062 782.777 188.24 782.777 188.24C797.54 251.752 754.063 301.272 754.063 301.272C764.932 389.524 655.754 442.369 625.012 467.027C594.27 491.686 561.216 546.6 561.216 546.6C558.458 537.393 552.739 532.81 549.698 530.945C546.129 507.544 530.068 470.15 500.421 460.457C499.853 457.659 498.15 453.441 493.689 450.196L482.657 375.166L471.626 450.196C467.124 453.441 465.461 457.659 464.893 460.457C435.247 470.15 419.186 507.584 415.617 530.945C412.575 532.81 406.857 537.393 404.099 546.6C404.099 546.6 371.086 491.727 340.303 467.027C309.561 442.369 200.382 389.524 211.252 301.272C211.252 301.272 167.775 251.752 182.537 188.24C182.537 188.24 188.783 216.062 244.589 253.537C244.589 253.537 142.792 173.802 180.956 83.969C216.362 195.176 371.816 207.18 399.273 281.196L424.742 349.94L447.211 260.553C450.293 248.346 458.648 240.275 482.698 240.275C512.142 240.275 518.834 252.117 518.834 252.117C518.834 252.117 539.599 253.861 539.599 274.667C539.599 286.347 530.96 298.879 530.96 298.879C521.43 287.929 514.048 293.607 514.048 293.607L539.275 353.631L566.123 281.196C593.58 207.18 749.034 195.176 784.44 83.969C822.563 173.843 720.807 253.537 720.807 253.537H720.725Z" fill="white"/>
<path d="M528.446 287.565C528.446 287.565 530.433 280.346 530.433 275.519C530.433 259.54 512.628 260.838 512.628 260.838C512.628 256.701 505.734 249.604 482.616 249.604C459.499 249.604 457.187 257.634 456.092 262.014L424.985 385.874L479.859 305.166L541.343 385.874L502.286 289.025C502.286 289.025 518.59 276.29 528.486 287.565H528.446ZM488.132 264.447L475.073 261.568C475.073 261.568 487.199 259.013 501.232 265.542C492.431 273.086 488.132 264.447 488.132 264.447Z" fill="white"/>
<path d="M181.036 115.887C182.983 179.48 223.702 223.2 267.219 256.821L231.205 168.448C207.236 152.144 188.661 134.867 181.077 115.887H181.036Z" fill="#C8102E"/>
<path d="M259.675 256.742L269.084 279.819C232.34 258.567 198.637 236.018 188.255 210.143C190.769 291.824 263.042 338.342 314.143 373.546L283.32 297.948C337.909 328.69 392.945 357.931 413.831 389.12C382.157 336.599 337.382 311.94 259.675 256.783V256.742Z" fill="#C8102E"/>
<path d="M218.836 313.318C221.391 394.635 319.376 430.446 349.672 460.702L328.258 408.059C353.89 423.187 377.251 438.193 393.96 453.482C334.098 370.747 240.98 361.905 218.836 313.318Z" fill="#C8102E"/>
<path d="M734.069 168.448L698.055 256.821C741.572 223.2 782.291 179.439 784.238 115.887C776.654 134.867 758.038 152.104 734.11 168.448H734.069Z" fill="#C8102E"/>
<path d="M551.4 389.077C572.287 357.888 627.282 328.688 681.912 297.905L651.089 373.503C702.19 338.259 774.463 291.781 776.977 210.1C766.594 236.015 732.892 258.524 696.147 279.776L705.557 256.699C627.85 311.856 583.116 336.515 551.4 389.036V389.077Z" fill="#C8102E"/>
<path d="M746.397 313.318C724.253 361.905 631.176 370.747 571.273 453.482C588.023 438.193 611.343 423.187 636.975 408.059L615.561 460.702C645.857 430.406 743.802 394.635 746.397 313.318Z" fill="#C8102E"/>
<path d="M475.073 261.608L488.133 264.487C488.133 264.487 492.432 273.126 501.232 265.582C487.24 259.053 475.073 261.608 475.073 261.608Z" fill="#041E42"/>
<path d="M566.042 281.155L539.194 353.59L513.967 293.566C513.967 293.566 521.308 287.888 530.879 298.838C530.879 298.838 539.518 286.265 539.518 274.626C539.518 253.86 518.753 252.076 518.753 252.076C518.753 252.076 512.061 240.233 482.617 240.233C458.567 240.233 450.212 248.304 447.13 260.512L424.661 349.899L399.192 281.155C371.735 207.139 216.281 195.134 180.875 83.9277C142.751 173.801 244.508 253.495 244.508 253.495C188.702 216.021 182.457 188.199 182.457 188.199C167.694 251.711 211.171 301.231 211.171 301.231C200.301 389.482 309.48 442.328 340.222 466.986C370.964 491.645 404.018 546.558 404.018 546.558C406.776 537.352 412.494 532.769 415.536 530.904C419.105 507.502 435.166 470.109 464.813 460.416C465.38 457.618 467.084 453.4 471.545 450.155L482.576 375.125L493.608 450.155C498.11 453.4 499.772 457.618 500.34 460.416C529.987 470.109 546.048 507.543 549.617 530.904C552.658 532.769 558.377 537.352 561.135 546.558C561.135 546.558 594.148 491.685 624.931 466.986C655.673 442.328 764.851 389.482 753.982 301.231C753.982 301.231 797.459 251.711 782.696 188.199C782.696 188.199 776.451 216.021 720.644 253.495C720.644 253.495 822.442 173.761 784.278 83.9277C748.872 195.134 593.418 207.139 565.961 281.155H566.042ZM181.037 115.886C188.621 134.867 207.237 152.104 231.165 168.448L267.18 256.821C223.703 223.2 182.984 179.479 181.037 115.886ZM328.217 408.057L349.631 460.7C319.336 430.404 221.35 394.633 218.795 313.317C240.939 361.904 334.017 370.745 393.919 453.481C377.169 438.191 353.849 423.185 328.217 408.057ZM283.321 297.905L314.144 373.503C263.043 338.259 190.771 291.781 188.256 210.1C198.639 236.016 232.341 258.524 269.086 279.776L259.677 256.699C337.383 311.857 382.117 336.515 413.833 389.036C392.946 357.848 337.951 328.647 283.321 297.865V297.905ZM479.819 305.165L424.945 385.873L456.052 262.012C457.147 257.632 460.027 249.602 482.576 249.602C505.126 249.602 512.588 256.699 512.588 260.836C512.588 260.836 530.393 259.538 530.393 275.518C530.393 280.385 528.406 287.563 528.406 287.563C518.55 276.288 502.206 289.023 502.206 289.023L541.262 385.873L479.778 305.165H479.819ZM615.562 460.7L636.976 408.057C611.344 423.185 587.983 438.191 571.274 453.481C631.176 370.745 724.254 361.904 746.398 313.317C743.843 394.633 645.858 430.445 615.562 460.7ZM776.937 210.1C774.423 291.781 702.151 338.3 651.049 373.503L681.872 297.905C627.242 328.647 572.247 357.889 551.361 389.077C583.035 336.556 627.81 311.897 705.517 256.74L696.108 279.817C732.852 258.565 766.555 236.016 776.937 210.14V210.1ZM697.973 256.821L733.988 168.448C757.957 152.144 776.532 134.867 784.116 115.886C782.169 179.479 741.45 223.2 697.933 256.821H697.973Z" fill="#041E42"/>
<path d="M598.284 552.359C603.151 552.359 607.125 548.384 607.125 543.517C607.125 538.65 603.151 534.676 598.284 534.676C593.417 534.676 589.442 538.65 589.442 543.517C589.442 548.384 593.417 552.359 598.284 552.359ZM598.284 536.541C602.137 536.541 605.219 539.664 605.219 543.517C605.219 547.37 602.096 550.452 598.284 550.452C594.471 550.452 591.308 547.329 591.308 543.517C591.308 539.705 594.431 536.541 598.284 536.541Z" fill="#041E42"/>
<path d="M596.539 544.45H597.918L599.825 548.546H601.933L599.946 544.287C601.122 543.882 601.933 542.746 601.933 541.448C601.933 539.786 600.595 538.447 598.932 538.447H594.674V548.546H596.58V544.45H596.539ZM596.539 540.353H598.892C599.5 540.353 599.987 540.84 599.987 541.448C599.987 542.057 599.5 542.544 598.892 542.544H596.539V540.353Z" fill="#041E42"/>
</svg>
