<svg xmlns="http://www.w3.org/2000/svg" height="800" width="1200" viewBox="-36.216 -60.36 313.872 362.16">
  <path fill="#cd1141" d="M241.44 120.84A120.72 120.72 0 11120.72 0a120.812 120.812 0 01120.72 120.84z"/>
  <path d="M120.72 235.2A114.484 114.484 0 01119.4 6.24h1.32a114.469 114.469 0 0181.84 194.52 113.993 113.993 0 01-80.64 34.44z"/>
  <path fill="#fff" d="M120.36 22.56l-1.2 1.2V38.4l1.2 1.2h3.96l1.2-1.2V23.76l-1.2-1.2zM132 42.24l-4.08 3.96h-11.16l-3.96-3.96v-22.2l3.96-3.96h11.16l3.96 3.96v22.2zm77.16 33.12l-1.56-.48-13.08 6.36-.6 1.56 1.68 3.6 1.56.6 13.2-6.36.6-1.56zm-12.6 18.96l-5.28-1.92-4.8-9.96 1.92-5.4 19.92-9.48 5.28 1.8 4.8 10.08-1.8 5.4zM50.64 53.64v1.68l10.56 10.2h1.68l2.88-2.88v-1.8l-10.44-10.2h-1.8zm22.08 5.28l.12 5.64-7.8 8.04H59.4L43.56 57.24l-.12-5.64 7.8-8.04 5.76-.12zm83.64-4.44l-1.2-19.68-6.84 16.2-5.28-2.16 11.76-27.72 6.48 2.76.12 17.28 6.12-14.64 5.4 2.28-11.64 27.72zM83.28 37.92l4.68-2.16a8.333 8.333 0 00.6-1.56L87 30.48l-1.68-.6-4.68 2.16zm12.24-2.76l-1.32 4.68 8.4 8.16-5.88 2.64-7.8-7.56-2.76 1.32 3.96 9.12-5.4 2.28-12-27.6 12.96-5.64 5.52 2.28zm80.52 33.6l-4.44-4.32 16.56-16.92-3.96-3.84 4.56-4.68 12.36 12.24-4.56 4.56-3.96-3.84zM55.32 87.6l-2.52 5.76-21.6-9.6-2.28 5.04-6-2.76 7.2-15.72L36 72.96 33.72 78zm140.52 66.72l-.6 1.08-1.8 3.6.48 1.56 3 1.68-.36-.24 1.56-.48 3.6-6.72 5.52-1.68 9.12 4.68 1.56 5.4-5.16 9.96-5.4 1.68-4.56-2.4 3-5.64 2.28 1.2 2.52-4.68-.6-1.68-2.4-1.2-1.68.48-3.36 6.6-5.64 1.68-9.12-4.68L186 159l5.16-9.96 5.52-1.56 4.32 2.28-3 5.64zM42.72 158.4l2.4 4.56a9.406 9.406 0 001.68.6l3.6-1.92.48-1.68-2.4-4.56zm3.6 12.12l-4.8-.96-7.56 8.88-3-5.64 6.96-8.28-1.44-2.76-8.88 4.56-2.64-5.16 26.64-13.92 6.6 12.48-1.8 5.52zm41.64 31.08l4.2 1.8 1.56-.72 1.68-3.84-.6-1.56-4.32-1.8zm-2.28 5.28l-4.32 10.44-5.28-2.16 11.52-27.84 12.72 5.28 2.16 5.4-4.2 10.2-4.2 2.16zm40.44 18.48l-6.36.12-.24-23.64-5.4.12-.12-6.6 17.28-.12.12 6.48-5.52.12zm22.44-27.96l-.72 1.56 5.16 13.68 1.56.6 3.84-1.44.72-1.56-5.16-13.68-1.56-.6zm17.76 14.16l-2.16 5.16-10.44 3.96-5.16-2.28-7.92-20.76 2.28-5.16 10.44-3.96 5.16 2.28zm11.16-22.92l3.96-3.48.12-1.56-2.64-3.24-1.56-.12-3.96 3.36zm10.92-6.24l.12 4.92 10.44 5.52-4.92 4.08-9.6-4.92-2.28 2.04 6.36 7.56-4.32 3.84-19.56-23.04 10.68-9 5.88.48zM60.96 192.84l4.2-8.28-8.04 4.8zm-.12 14.28l-4.68-4.32 2.16-4.44-6.48-6-4.32 2.64-4.68-4.44 27.24-16.32 4.68 4.32z"/>
  <path fill="#a0a0a3" d="M144.12 181.32l.24.24a6.461 6.461 0 00.96-.12l.72-.24 1.92-.84 4.68-2.16.84-.48.48-.24.48-.36.84-.48.96-.6 1.32-.84 2.16-1.56 1.2-.84 1.56-1.08 1.44-1.08.6-.48 1.08-.96.96-.96 1.56-1.68 1.8-1.8 2.16-2.52 1.2-1.56.36-.48 1.32-1.56 2.4-3.6.72-1.08 1.68-3.24.84-1.68 1.56-3.24.84-2.04.96-3s1.08-3.96 1.68-6c.12-.12.12-.36-.12-.6a9.92 9.92 0 01-.84-1.56 5.217 5.217 0 00-.48-.84c-.24-.24-.6-.72-.84-.96-.12-.24-.36-.36-.6-.6-.48-.36-.96-.96-1.32-1.2-.24-.12-.36-.24-.6-.36a15.044 15.044 0 00-4.2-2.52 12.493 12.493 0 00-1.92-.72 8.84 8.84 0 00-1.68-.48.565.565 0 00-.72.12c-.12.12-.12.36-.12.72a17.904 17.904 0 00-.24 2.52 17.904 17.904 0 00-.24 2.52c-.12.84-.12 1.56-.24 2.4a25.987 25.987 0 01-.48 3c-.36 1.92-.72 3.84-1.08 5.64a5.954 5.954 0 01-.36 1.56 19.043 19.043 0 00-.84 2.4 36.675 36.675 0 01-1.56 5.16 15.629 15.629 0 01-1.8 4.08c0 .12 0 .12-.12.36-.36.84-.72 1.68-1.08 2.64-.24.48-.6.96-.84 1.56a11.394 11.394 0 01-1.2 2.04c-.6 1.08-1.32 2.04-1.92 3.12a11.887 11.887 0 01-1.32 2.04c-.12.24-.24.36-.36.6a8.517 8.517 0 01-1.2 1.68c-.84 1.08-1.68 2.16-2.52 3.12L153 174l-1.56 1.56c-.12.24-.24.24-.36.36a3.235 3.235 0 00-.96.84 10.755 10.755 0 01-2.16 1.8 6.011 6.011 0 00-.96.84 12.058 12.058 0 01-2.88 1.92zm42.36-50.64l.12-.12v-.48l.48-4.08.24-3.84v-4.44l-.36-4.32s-.6-3.96-.96-6c-.12-.72-.6-.96-1.2-1.32-.24-.12-.36-.24-.6-.24a5.85 5.85 0 01-1.32-.48c-.96-.12-1.92-.6-2.88-.72-1.2-.24-2.4-.24-3.6-.48-.96 0-1.92-.12-2.88-.12h-2.04c-.48 0-.84 0-1.08.36-.24.24 0 .72 0 1.2.12.96.36 1.44.48 2.28a64.273 64.273 0 011.08 8.4c0 1.32.12 2.52.12 3.84v.96a5.196 5.196 0 00.12.6 2.625 2.625 0 00.6.36 2.111 2.111 0 01.72.12 3.71 3.71 0 01.96.24c1.08.36 2.28.72 3.48 1.2a18.126 18.126 0 012.16 1.08.372.372 0 00.24.12c.48.36.96.72 1.32.96a15.069 15.069 0 012.88 2.64.937.937 0 00.48.48c.36.36.84 1.32 1.2 1.68.12 0 .12.12.24.12zm-29.04-46.32h1.08c.24 0 .48 0 .48-.36.12-.24 0-.36-.12-.6s-.84-1.44-.84-1.44l-.72-1.2-3.12-4.32-.6-.84-.6-.84-.96-1.08-2.52-2.64-.96-1.08-3.84-3.6-3.12-2.4-1.2-.6-3.6-2.16-2.64-1.44-.48-.24-2.16-.72-3.12-1.2-.24-.12-.96-.24L126 57l-1.8-.36h-.96l-1.68-.36-1.92-.12-.72-.12h-1.2l-2.16.12-2.04.24h-1.56l-1.44.12-1.32.24-1.2.36-1.8.36h-.36l-1.68.6-.96.36-.6.36-1.44.36-.6.36-.84.48-2.16.96-2.76 1.08-.84.36-1.92 1.08-1.68 1.08-1.56.84-.6.24-1.68.96-.36.12-1.92 1.44-1.56 1.08-.36.24-1.8 1.44-.6.48a7.241 7.241 0 00-.96.96l.6-.12 1.32-.48h.24l1.8-.72h.24l1.92-.84 1.08-.24.96-.36 1.44-.6 3.6-1.32h.24l1.8-.6 1.44-.6.24.12 2.76.12 1.8.12h.12l3.48.36 4.92.24v.12l1.8 1.44h.12l1.8 1.8.12-.12 2.52.12.12-.12 6.12.36v.12l2.76 1.68h.12l4.8 2.28v.24l2.76-1.08 4.08 1.32.72 1.2h1.44l1.44 1.56h.12l1.2 1.32v.12h.12l3.12.72 1.2 1.8 2.88 1.08a40.059 40.059 0 004.8.96 17.281 17.281 0 004.32 0zm27.36 18.6c-.12-.36-.48-1.32-.48-1.32l-.12-.6-.24-.6-.48-1.56-.48-1.32-1.56-3.36-.72-1.68-.72-1.92-1.08-1.56-.96-1.8-.6-1.08-.36-.36-4.32-6-.72-.72a.258.258 0 00-.24-.24s-1.32 2.16-1.92 2.88c-.6.6-1.8 1.68-1.8 1.68s-.96.72-1.08.84a11.067 11.067 0 01-.96.6l-.96.6a5.85 5.85 0 01-.84.36c-.24.12-.36.12-.36.24-.12.12-.12.12-.12.36s.12.24.12.36a25.677 25.677 0 001.2 2.64 21.902 21.902 0 011.68 3.84 12.45 12.45 0 01.48 1.2c.36 1.2.84 2.28 1.08 3.36.12.6.36.96.48 1.56.12.48.24 1.08.36 1.44.12.36.24.6.72.48h.96c1.2 0 2.28-.12 3.48-.12.36 0 2.76.24 2.76.24s.72.12 1.2.24c.96.12 1.8.36 2.76.48a15.197 15.197 0 012.16.72l1.08.36a1.209 1.209 0 01.36.12c.24-.12.24-.24.24-.36z"/>
  <path fill="#a0a0a3" d="M169.32 76.8a2.622 2.622 0 00-.36-.6l-.24-.36-.6-.84-.36-.6-.84-.72a1.485 1.485 0 00-.36-.24c-1.44-1.08-4.2-3.36-4.2-3.36l-.72-.6-1.44-1.32-7.2-4.32-5.76-2.64-3.12-1.2-1.08-.36-3.72-1.32-2.64-.72-2.52-.48h-.36l-.24.24s.24.24.36.24c.84.24 1.68.6 2.4.84.6.24 1.08.48 1.68.72a1.481 1.481 0 01.96.48c1.2.6 2.4 1.32 3.72 2.04a13.101 13.101 0 012.04 1.56l1.44 1.08a3.18 3.18 0 01.72.6c.12.12.24.24.36.24.72.6 1.56 1.2 2.16 1.8a17.378 17.378 0 002.04 2.16c.72.72 1.32 1.32 1.92 2.04a20.863 20.863 0 001.56 1.8c1.08 1.08 1.8 2.28 2.88 3.36.12.12.12.24.24.48a24.029 24.029 0 001.92 2.88 12.458 12.458 0 011.44 2.04 7.17 7.17 0 00.72 1.32c.24.12.48.36.6.36a.838.838 0 00.48-.24l.48-.12a6.885 6.885 0 00.84-.48 1.934 1.934 0 00.84-.48 6.923 6.923 0 001.2-.96c.36-.36 1.2-1.32 1.2-1.32l.6-.72.96-1.68c-.12 0 .12-.36 0-.6zm-3 24.24c-.36-1.2-.6-2.4-1.08-3.6a28.095 28.095 0 00-1.08-2.88c-.24-.6-.36-1.2-.6-1.8-.12-.36-.24-.6-.36-.96a22.49 22.49 0 00-2.04-4.2.372.372 0 00-.12-.24c-.12-.12-.12-.24-.24-.36-.24-.12-.36 0-.72 0-.6 0-1.44.12-1.68.12-.36 0-1.56.12-2.52.12h-1.44l-3.12-.48c-1.2-.12-3.72-.72-3.72-.72l-2.04-.72-2.4-.84-.12.12-3.72-.36-.12.12-2.04-1.56h-.24l-1.32-1.2v-.24l-1.44-.24-.24.12-1.2-.48-.12-.12-2.64.24-2.52-.96-8.52.48-.12-.12-1.68.12-.12.24-4.2.24-.12-.12-6 3.48-.12.24-.24.24-.12-.12-3-.24h-5.64L96 84.24l-.48-.24L90 88.32v.12L88.08 90l-2.16-1.08-.12.12-.84-.24s-4.08.96-3.96.96l-3.84-.6-.24-.12-.6.72-1.56.72v.12l-3 2.4-4.32 3-4.8 3.6-2.16 1.56-.12.96-.84 2.04-.36 1.8-.6 3.72-.36 1.56-.24 1.92-.48 3.96-.24 8.64.24.48.12 2.4s0 .48.12.48L68.4 118.2l3.36-1.44 3-.12 1.8-2.04.12-.36h.24l4.8-.48.24-.12H84l.6-.72 2.16-1.32 2.4-1.56h6.36l.12.12 2.52.24 2.04-.36 3.6-3.6 2.88-2.76 4.32-.48.12-.24.24.24 2.16.96.24-.12 1.92-.24h.12l1.8-.36h.12l2.04 1.68.12-.12 4.08-.12.36-.24 3.36.12.12.12.6-.12v-.12l1.32-.6h.24l1.44-.72.12-.12 1.68-.6.12-.24 4.68-1.8.84-.24.12-.12.24.24 1.32.6h.48l1.44.84.12-.12.36-.24h.12l.72-.36v-.12l1.08-.24 2.76.72.6-.12.48.24 2.04.36 1.92.72 1.08-.12.48.24.24-.12s3.84-.48 5.76-.6c1.32-.12 2.52-.24 3.72-.36.72-.12 1.44-.12 2.16-.24.24.12.48-.12.24-.48z"/>
  <path fill="#a0a0a3" d="M169.2 120.72c0-.36-.12-.48-.12-.72a13.041 13.041 0 01-.12-2.16c0-.24-.12-.6-.12-.84a20.34 20.34 0 01-.12-2.76c-.12-1.2-.36-2.28-.48-3.48a20.345 20.345 0 00-.48-2.64 22.148 22.148 0 00-.48-2.76c-.24-.96-.36-.96-1.32-.96-.12 0-.24 0-.24.12a4.083 4.083 0 01-1.2.12c-1.92.24-3.72.36-5.52.6l-5.4 1.92-7.8-.24-.84-.36v.24l-2.4 1.68h-.24l-1.8 1.68-.12.24-4.68.6-4.2 3.36h-.48l-2.28 1.32-.84.12-.96.72-.24-.12-4.32-.36-.72.84v.12l-3.72 4.2-.12.24h-.12l-4.8 5.4h-1.32l-.12.12-3.96.72h-.36v.24l-6.6 3.6-2.88-.36-.6.24-2.88-.24-2.88 3.12-1.8.36h-.96l-.96.36H87v.12l-3.6 2.76-.48.12-5.52 4.32v.24l-3.48 8.4.24.36-5.76.48-1.8 1.68-.24.6 2.64 3.48 1.8 2.88 1.68 2.16 2.64 2.76v.24c.12 0 .48 0 .48.12l1.56.48 1.92.6a.118.118 0 00.12.12h.12l3.24 1.32h.24l.12.12h.36l.72.6 1.32-.72h.12l.6-.48 4.92 1.2 3.6-1.8 7.92-.72 3.24-5.28 1.44-1.44h.24l1.08-1.08v-.12l2.04-1.92.96-.96.24-.12 1.08-1.08.96-.96.24-.12-.24-.72.84-3.48 1.8-.48.12-.12.48-.12v-.24l2.4-3.96h.24l.96-2.04 1.68-.84.24-.36.24.12.96-.48h.12l1.68-.84.24-.24 5.76-2.64h.48v-.36l.24-.12.6-2.04 1.92-.84 2.04-.12 1.92-1.44 2.88.24.24.12.12-.12 3.96-1.68v-.6l.84-1.8 1.92-.48.12-.12 2.52-.6 1.08-1.2h.12l.6-.6 1.8.24v.12l1.08.12.6.12s2.52-1.2 3.72-1.68a5.85 5.85 0 001.32-.48c.6-.24 1.2-.36 1.8-.6a2.824 2.824 0 00.96-.24l1.2-.24 1.32-.24.96-.12h.6a.776.776 0 00.6-.24c.24-.12.12-.36.24-.48a2.112 2.112 0 01-.12-.72z"/>
  <path fill="#a0a0a3" d="M169.2 125.76a1.014 1.014 0 00-.24-.72.91.91 0 00-.48-.24c-.12 0-.84.12-.84.12l-1.08.12c-.24 0-.24.12-.36.12a10.162 10.162 0 00-2.04.48 9.105 9.105 0 00-2.16.72 14.576 14.576 0 00-2.4 1.08c-.24.12-2.76 1.32-3.84 1.92l-1.56 1.56v.24H153v.12l-3 .96v.36l-.36.24v.24l-1.44 2.52h-.24v.24s-.24.36-.6.96l-6.24 3.96H141l-1.08.84-.6 2.64-.6.6-2.52 9.12.36 1.08-3.6 1.68h-.6l-.72 3.12-.12.12-.96 2.88.12.12-.36 2.4-.12.24.12.24-3.6 5.52h-.24l-.84 1.44v.24l-3 4.2-3.12 1.92.12.24-.12 1.32.24.48-.36.12-2.28 1.32h-.24l-3.36 1.92-.36.6 1.2.24 2.16.12 1.56.12h5.04l4.68-.6 2.76-.6 2.16-.6 2.28-.6 2.88-1.2.24-.12.84-.48a30.524 30.524 0 003.36-2.04 57.845 57.845 0 005.28-4.2 19.924 19.924 0 001.56-1.68 19.133 19.133 0 001.56-1.56c.12-.12.24-.12.24-.36a6.862 6.862 0 01.84-.96 3.181 3.181 0 00.6-.72 15.684 15.684 0 011.32-1.44 3.404 3.404 0 001.08-1.2 16.481 16.481 0 001.56-2.4 30.404 30.404 0 002.16-3.24c.6-1.2 1.2-2.4 1.92-3.6.6-.96 1.08-2.04 1.56-3 .72-1.8 1.56-3.6 2.16-5.28a35.388 35.388 0 001.8-5.76 30.472 30.472 0 011.2-4.44 1.305 1.305 0 01.12-.6c.24-1.2.36-2.4.6-3.6.12-1.08.24-2.16.48-3.36a15.005 15.005 0 00.36-2.28c0-1.08.12-2.16.12-3.24v-.36a.896.896 0 00.36-.36z"/>
</svg>
